solid OpenSCAD_Model
  facet normal -0 0 1
    outer loop
      vertex 0 40.3 7
      vertex 42.4 0 7
      vertex 42.4 40.3 7
    endloop
  endfacet
  facet normal 0 0 1
    outer loop
      vertex 42.4 0 7
      vertex 0 40.3 7
      vertex 0 0 7
    endloop
  endfacet
  facet normal 0 0 -1
    outer loop
      vertex 0 0 0
      vertex 42.4 40.3 0
      vertex 42.4 0 0
    endloop
  endfacet
  facet normal -0 0 -1
    outer loop
      vertex 42.4 40.3 0
      vertex 0 0 0
      vertex 0 40.3 0
    endloop
  endfacet
  facet normal 0 -1 0
    outer loop
      vertex 0 0 0
      vertex 42.4 0 7
      vertex 0 0 7
    endloop
  endfacet
  facet normal 0 -1 -0
    outer loop
      vertex 42.4 0 7
      vertex 0 0 0
      vertex 42.4 0 0
    endloop
  endfacet
  facet normal 1 -0 0
    outer loop
      vertex 42.4 0 7
      vertex 42.4 40.3 0
      vertex 42.4 40.3 7
    endloop
  endfacet
  facet normal 1 0 0
    outer loop
      vertex 42.4 40.3 0
      vertex 42.4 0 7
      vertex 42.4 0 0
    endloop
  endfacet
  facet normal 0 1 -0
    outer loop
      vertex 42.4 40.3 0
      vertex 0 40.3 7
      vertex 42.4 40.3 7
    endloop
  endfacet
  facet normal 0 1 0
    outer loop
      vertex 0 40.3 7
      vertex 42.4 40.3 0
      vertex 0 40.3 0
    endloop
  endfacet
  facet normal -1 0 0
    outer loop
      vertex 0 0 0
      vertex 0 40.3 7
      vertex 0 40.3 0
    endloop
  endfacet
  facet normal -1 -0 0
    outer loop
      vertex 0 40.3 7
      vertex 0 0 0
      vertex 0 0 7
    endloop
  endfacet
endsolid OpenSCAD_Model
