solid OpenSCAD_Model
  facet normal -0.866025 0.5 0
    outer loop
      vertex -34.5 0 0
      vertex -34.5 0 16
      vertex -17.25 29.8779 0
    endloop
  endfacet
  facet normal -0.866025 0.5 0
    outer loop
      vertex -17.25 29.8779 0
      vertex -34.5 0 16
      vertex -17.25 29.8779 16
    endloop
  endfacet
  facet normal -0.866025 -0.5 0
    outer loop
      vertex -34.5 0 0
      vertex -17.25 -29.8779 0
      vertex -34.5 0 16
    endloop
  endfacet
  facet normal -0.866025 -0.5 0
    outer loop
      vertex -34.5 0 16
      vertex -17.25 -29.8779 0
      vertex -17.25 -29.8779 16
    endloop
  endfacet
  facet normal -0.578664 -0.334092 -0.743996
    outer loop
      vertex -17.25 -29.8779 0
      vertex -34.5 0 0
      vertex -12.75 -22.0836 -7
    endloop
  endfacet
  facet normal -0.578664 -0.334092 -0.743996
    outer loop
      vertex -12.75 -22.0836 -7
      vertex -34.5 0 0
      vertex -25.5 0 -7
    endloop
  endfacet
  facet normal -0.578664 0.334092 -0.743996
    outer loop
      vertex -25.5 0 -7
      vertex -34.5 0 0
      vertex -12.75 22.0836 -7
    endloop
  endfacet
  facet normal -0.578664 0.334092 -0.743996
    outer loop
      vertex -12.75 22.0836 -7
      vertex -34.5 0 0
      vertex -17.25 29.8779 0
    endloop
  endfacet
  facet normal 0 0.668184 -0.743996
    outer loop
      vertex -17.25 29.8779 0
      vertex 17.25 29.8779 0
      vertex -12.75 22.0836 -7
    endloop
  endfacet
  facet normal 0 0.668184 -0.743996
    outer loop
      vertex -12.75 22.0836 -7
      vertex 17.25 29.8779 0
      vertex 12.75 22.0836 -7
    endloop
  endfacet
  facet normal 0 1 0
    outer loop
      vertex -17.25 29.8779 0
      vertex -17.25 29.8779 16
      vertex 17.25 29.8779 0
    endloop
  endfacet
  facet normal 0 1 0
    outer loop
      vertex 17.25 29.8779 0
      vertex -17.25 29.8779 16
      vertex 17.25 29.8779 16
    endloop
  endfacet
  facet normal 0 0.668184 0.743996
    outer loop
      vertex 17.25 29.8779 16
      vertex -17.25 29.8779 16
      vertex -12.75 22.0836 23
    endloop
  endfacet
  facet normal 0 0.668184 0.743996
    outer loop
      vertex 12.75 22.0836 23
      vertex 17.25 29.8779 16
      vertex -12.75 22.0836 23
    endloop
  endfacet
  facet normal -0.578664 0.334092 0.743996
    outer loop
      vertex -17.25 29.8779 16
      vertex -34.5 0 16
      vertex -12.75 22.0836 23
    endloop
  endfacet
  facet normal -0.578664 0.334092 0.743996
    outer loop
      vertex -12.75 22.0836 23
      vertex -34.5 0 16
      vertex -25.5 0 23
    endloop
  endfacet
  facet normal -0.578664 -0.334092 0.743996
    outer loop
      vertex -25.5 0 23
      vertex -34.5 0 16
      vertex -12.75 -22.0836 23
    endloop
  endfacet
  facet normal -0.578664 -0.334092 0.743996
    outer loop
      vertex -12.75 -22.0836 23
      vertex -34.5 0 16
      vertex -17.25 -29.8779 16
    endloop
  endfacet
  facet normal 0 -0.668184 0.743996
    outer loop
      vertex -12.75 -22.0836 23
      vertex -17.25 -29.8779 16
      vertex 17.25 -29.8779 16
    endloop
  endfacet
  facet normal 0 -0.668184 0.743996
    outer loop
      vertex 12.75 -22.0836 23
      vertex -12.75 -22.0836 23
      vertex 17.25 -29.8779 16
    endloop
  endfacet
  facet normal 0 -1 0
    outer loop
      vertex -17.25 -29.8779 16
      vertex -17.25 -29.8779 0
      vertex 17.25 -29.8779 0
    endloop
  endfacet
  facet normal 0 -1 0
    outer loop
      vertex 17.25 -29.8779 16
      vertex -17.25 -29.8779 16
      vertex 17.25 -29.8779 0
    endloop
  endfacet
  facet normal 0 -0.668184 -0.743996
    outer loop
      vertex -17.25 -29.8779 0
      vertex -12.75 -22.0836 -7
      vertex 17.25 -29.8779 0
    endloop
  endfacet
  facet normal 0 -0.668184 -0.743996
    outer loop
      vertex 17.25 -29.8779 0
      vertex -12.75 -22.0836 -7
      vertex 12.75 -22.0836 -7
    endloop
  endfacet
  facet normal 0 0 -1
    outer loop
      vertex -25.5 0 -7
      vertex -12.75 22.0836 -7
      vertex -12.75 -22.0836 -7
    endloop
  endfacet
  facet normal 0 0 -1
    outer loop
      vertex -12.75 -22.0836 -7
      vertex -12.75 22.0836 -7
      vertex 12.75 22.0836 -7
    endloop
  endfacet
  facet normal 0 0 -1
    outer loop
      vertex -12.75 -22.0836 -7
      vertex 12.75 22.0836 -7
      vertex 25.5 0 -7
    endloop
  endfacet
  facet normal 0 0 -1
    outer loop
      vertex -12.75 -22.0836 -7
      vertex 25.5 0 -7
      vertex 12.75 -22.0836 -7
    endloop
  endfacet
  facet normal 0.578664 0.334092 -0.743996
    outer loop
      vertex 25.5 0 -7
      vertex 12.75 22.0836 -7
      vertex 34.5 0 0
    endloop
  endfacet
  facet normal 0.578664 0.334092 -0.743996
    outer loop
      vertex 34.5 0 0
      vertex 12.75 22.0836 -7
      vertex 17.25 29.8779 0
    endloop
  endfacet
  facet normal 0.866025 0.5 0
    outer loop
      vertex 34.5 0 0
      vertex 17.25 29.8779 0
      vertex 17.25 29.8779 16
    endloop
  endfacet
  facet normal 0.866025 0.5 0
    outer loop
      vertex 34.5 0 16
      vertex 34.5 0 0
      vertex 17.25 29.8779 16
    endloop
  endfacet
  facet normal 0.578664 0.334092 0.743996
    outer loop
      vertex 17.25 29.8779 16
      vertex 12.75 22.0836 23
      vertex 34.5 0 16
    endloop
  endfacet
  facet normal 0.578664 0.334092 0.743996
    outer loop
      vertex 34.5 0 16
      vertex 12.75 22.0836 23
      vertex 25.5 0 23
    endloop
  endfacet
  facet normal 0 0 1
    outer loop
      vertex -18.7277 -8.3381 23
      vertex -25.5 0 23
      vertex -12.75 -22.0836 23
    endloop
  endfacet
  facet normal 0 0 1
    outer loop
      vertex 18.7277 -8.3381 23
      vertex 16.5848 -12.0496 23
      vertex 12.75 -22.0836 23
    endloop
  endfacet
  facet normal 0 0 1
    outer loop
      vertex -20.5 0 23
      vertex -25.5 0 23
      vertex -20.052 -4.26219 23
    endloop
  endfacet
  facet normal 0 0 1
    outer loop
      vertex -20.052 4.26219 23
      vertex -25.5 0 23
      vertex -20.5 0 23
    endloop
  endfacet
  facet normal 0 0 1
    outer loop
      vertex -18.7277 8.3381 23
      vertex -25.5 0 23
      vertex -20.052 4.26219 23
    endloop
  endfacet
  facet normal 0 0 1
    outer loop
      vertex -12.75 22.0836 23
      vertex -25.5 0 23
      vertex -18.7277 8.3381 23
    endloop
  endfacet
  facet normal 0 0 1
    outer loop
      vertex 2.14283 -20.3877 23
      vertex -2.14283 -20.3877 23
      vertex -12.75 -22.0836 23
    endloop
  endfacet
  facet normal 0 0 1
    outer loop
      vertex -2.14283 20.3877 23
      vertex 2.14283 20.3877 23
      vertex 12.75 22.0836 23
    endloop
  endfacet
  facet normal 0 0 1
    outer loop
      vertex -10.25 -17.7535 23
      vertex -13.7172 -15.2345 23
      vertex -12.75 -22.0836 23
    endloop
  endfacet
  facet normal 0 0 1
    outer loop
      vertex -2.14283 20.3877 23
      vertex -12.75 22.0836 23
      vertex -6.33485 19.4967 23
    endloop
  endfacet
  facet normal 0 0 1
    outer loop
      vertex 16.5848 12.0496 23
      vertex 18.7277 8.3381 23
      vertex 25.5 0 23
    endloop
  endfacet
  facet normal 0 0 1
    outer loop
      vertex 12.75 22.0836 23
      vertex -12.75 22.0836 23
      vertex -2.14283 20.3877 23
    endloop
  endfacet
  facet normal 0 0 1
    outer loop
      vertex 20.052 4.26219 23
      vertex 20.5 0 23
      vertex 25.5 0 23
    endloop
  endfacet
  facet normal 0 0 1
    outer loop
      vertex 12.75 22.0836 23
      vertex 2.14283 20.3877 23
      vertex 6.33485 19.4967 23
    endloop
  endfacet
  facet normal 0 0 1
    outer loop
      vertex 12.75 22.0836 23
      vertex 6.33485 19.4967 23
      vertex 10.25 17.7535 23
    endloop
  endfacet
  facet normal 0 0 1
    outer loop
      vertex 12.75 22.0836 23
      vertex 10.25 17.7535 23
      vertex 13.7172 15.2345 23
    endloop
  endfacet
  facet normal 0 0 1
    outer loop
      vertex 12.75 22.0836 23
      vertex 16.5848 12.0496 23
      vertex 25.5 0 23
    endloop
  endfacet
  facet normal 0 0 1
    outer loop
      vertex 12.75 22.0836 23
      vertex 13.7172 15.2345 23
      vertex 16.5848 12.0496 23
    endloop
  endfacet
  facet normal 0 0 1
    outer loop
      vertex 13.7172 -15.2345 23
      vertex 10.25 -17.7535 23
      vertex 12.75 -22.0836 23
    endloop
  endfacet
  facet normal 0 0 1
    outer loop
      vertex 16.5848 -12.0496 23
      vertex 13.7172 -15.2345 23
      vertex 12.75 -22.0836 23
    endloop
  endfacet
  facet normal 0 0 1
    outer loop
      vertex 25.5 0 23
      vertex 20.5 0 23
      vertex 20.052 -4.26219 23
    endloop
  endfacet
  facet normal 0 0 1
    outer loop
      vertex 25.5 0 23
      vertex 18.7277 -8.3381 23
      vertex 12.75 -22.0836 23
    endloop
  endfacet
  facet normal 0 0 1
    outer loop
      vertex 25.5 0 23
      vertex 20.052 -4.26219 23
      vertex 18.7277 -8.3381 23
    endloop
  endfacet
  facet normal 0 0 1
    outer loop
      vertex -10.25 17.7535 23
      vertex -6.33485 19.4967 23
      vertex -12.75 22.0836 23
    endloop
  endfacet
  facet normal 0 0 1
    outer loop
      vertex -2.14283 -20.3877 23
      vertex -6.33485 -19.4967 23
      vertex -12.75 -22.0836 23
    endloop
  endfacet
  facet normal 0 0 1
    outer loop
      vertex 12.75 -22.0836 23
      vertex 10.25 -17.7535 23
      vertex 6.33485 -19.4967 23
    endloop
  endfacet
  facet normal 0 0 1
    outer loop
      vertex 12.75 -22.0836 23
      vertex 2.14283 -20.3877 23
      vertex -12.75 -22.0836 23
    endloop
  endfacet
  facet normal 0 0 1
    outer loop
      vertex 12.75 -22.0836 23
      vertex 6.33485 -19.4967 23
      vertex 2.14283 -20.3877 23
    endloop
  endfacet
  facet normal 0 0 1
    outer loop
      vertex -6.33485 -19.4967 23
      vertex -10.25 -17.7535 23
      vertex -12.75 -22.0836 23
    endloop
  endfacet
  facet normal 0 0 1
    outer loop
      vertex 18.7277 8.3381 23
      vertex 20.052 4.26219 23
      vertex 25.5 0 23
    endloop
  endfacet
  facet normal 0 0 1
    outer loop
      vertex -13.7172 -15.2345 23
      vertex -16.5848 -12.0496 23
      vertex -12.75 -22.0836 23
    endloop
  endfacet
  facet normal 0 0 1
    outer loop
      vertex -20.052 -4.26219 23
      vertex -25.5 0 23
      vertex -18.7277 -8.3381 23
    endloop
  endfacet
  facet normal 0 0 1
    outer loop
      vertex -18.7277 8.3381 23
      vertex -16.5848 12.0496 23
      vertex -12.75 22.0836 23
    endloop
  endfacet
  facet normal 0 0 1
    outer loop
      vertex -16.5848 12.0496 23
      vertex -13.7172 15.2345 23
      vertex -12.75 22.0836 23
    endloop
  endfacet
  facet normal 0 0 1
    outer loop
      vertex -16.5848 -12.0496 23
      vertex -18.7277 -8.3381 23
      vertex -12.75 -22.0836 23
    endloop
  endfacet
  facet normal 0 0 1
    outer loop
      vertex -13.7172 15.2345 23
      vertex -10.25 17.7535 23
      vertex -12.75 22.0836 23
    endloop
  endfacet
  facet normal 0.578664 -0.334092 0.743996
    outer loop
      vertex 34.5 0 16
      vertex 12.75 -22.0836 23
      vertex 17.25 -29.8779 16
    endloop
  endfacet
  facet normal 0.578664 -0.334092 0.743996
    outer loop
      vertex 25.5 0 23
      vertex 12.75 -22.0836 23
      vertex 34.5 0 16
    endloop
  endfacet
  facet normal 0.866025 -0.5 0
    outer loop
      vertex 17.25 -29.8779 16
      vertex 17.25 -29.8779 0
      vertex 34.5 0 0
    endloop
  endfacet
  facet normal 0.866025 -0.5 0
    outer loop
      vertex 34.5 0 16
      vertex 17.25 -29.8779 16
      vertex 34.5 0 0
    endloop
  endfacet
  facet normal 0.578664 -0.334092 -0.743996
    outer loop
      vertex 17.25 -29.8779 0
      vertex 12.75 -22.0836 -7
      vertex 34.5 0 0
    endloop
  endfacet
  facet normal 0.578664 -0.334092 -0.743996
    outer loop
      vertex 34.5 0 0
      vertex 12.75 -22.0836 -7
      vertex 25.5 0 -7
    endloop
  endfacet
  facet normal 0.994522 0.104528 0
    outer loop
      vertex -20.5 0 23
      vertex -20.052 -4.26219 23
      vertex -20.052 -4.26219 7
    endloop
  endfacet
  facet normal 0.994522 0.104528 0
    outer loop
      vertex -20.5 0 7
      vertex -20.5 0 23
      vertex -20.052 -4.26219 7
    endloop
  endfacet
  facet normal 0.951057 0.309017 0
    outer loop
      vertex -20.052 -4.26219 23
      vertex -18.7277 -8.3381 23
      vertex -18.7277 -8.3381 7
    endloop
  endfacet
  facet normal 0.951057 0.309017 0
    outer loop
      vertex -20.052 -4.26219 7
      vertex -20.052 -4.26219 23
      vertex -18.7277 -8.3381 7
    endloop
  endfacet
  facet normal 0.866025 0.5 0
    outer loop
      vertex -18.7277 -8.3381 23
      vertex -16.5848 -12.0496 23
      vertex -16.5848 -12.0496 7
    endloop
  endfacet
  facet normal 0.866025 0.5 0
    outer loop
      vertex -18.7277 -8.3381 7
      vertex -18.7277 -8.3381 23
      vertex -16.5848 -12.0496 7
    endloop
  endfacet
  facet normal 0.743145 0.669131 0
    outer loop
      vertex -16.5848 -12.0496 23
      vertex -13.7172 -15.2345 23
      vertex -13.7172 -15.2345 7
    endloop
  endfacet
  facet normal 0.743145 0.669131 0
    outer loop
      vertex -16.5848 -12.0496 7
      vertex -16.5848 -12.0496 23
      vertex -13.7172 -15.2345 7
    endloop
  endfacet
  facet normal 0.587785 0.809017 0
    outer loop
      vertex -10.25 -17.7535 23
      vertex -10.25 -17.7535 7
      vertex -13.7172 -15.2345 23
    endloop
  endfacet
  facet normal 0.587785 0.809017 0
    outer loop
      vertex -13.7172 -15.2345 23
      vertex -10.25 -17.7535 7
      vertex -13.7172 -15.2345 7
    endloop
  endfacet
  facet normal 0.406737 0.913545 0
    outer loop
      vertex -6.33485 -19.4967 23
      vertex -6.33485 -19.4967 7
      vertex -10.25 -17.7535 23
    endloop
  endfacet
  facet normal 0.406737 0.913545 0
    outer loop
      vertex -10.25 -17.7535 23
      vertex -6.33485 -19.4967 7
      vertex -10.25 -17.7535 7
    endloop
  endfacet
  facet normal 0.207912 0.978148 0
    outer loop
      vertex -2.14283 -20.3877 23
      vertex -2.14283 -20.3877 7
      vertex -6.33485 -19.4967 23
    endloop
  endfacet
  facet normal 0.207912 0.978148 0
    outer loop
      vertex -6.33485 -19.4967 23
      vertex -2.14283 -20.3877 7
      vertex -6.33485 -19.4967 7
    endloop
  endfacet
  facet normal 0 1 0
    outer loop
      vertex 2.14283 -20.3877 23
      vertex 2.14283 -20.3877 7
      vertex -2.14283 -20.3877 23
    endloop
  endfacet
  facet normal 0 1 0
    outer loop
      vertex -2.14283 -20.3877 23
      vertex 2.14283 -20.3877 7
      vertex -2.14283 -20.3877 7
    endloop
  endfacet
  facet normal -0.207912 0.978148 0
    outer loop
      vertex 6.33485 -19.4967 23
      vertex 6.33485 -19.4967 7
      vertex 2.14283 -20.3877 23
    endloop
  endfacet
  facet normal -0.207912 0.978148 0
    outer loop
      vertex 2.14283 -20.3877 23
      vertex 6.33485 -19.4967 7
      vertex 2.14283 -20.3877 7
    endloop
  endfacet
  facet normal -0.406737 0.913545 0
    outer loop
      vertex 10.25 -17.7535 23
      vertex 10.25 -17.7535 7
      vertex 6.33485 -19.4967 23
    endloop
  endfacet
  facet normal -0.406737 0.913545 0
    outer loop
      vertex 6.33485 -19.4967 23
      vertex 10.25 -17.7535 7
      vertex 6.33485 -19.4967 7
    endloop
  endfacet
  facet normal -0.587785 0.809017 0
    outer loop
      vertex 13.7172 -15.2345 23
      vertex 13.7172 -15.2345 7
      vertex 10.25 -17.7535 23
    endloop
  endfacet
  facet normal -0.587785 0.809017 0
    outer loop
      vertex 10.25 -17.7535 23
      vertex 13.7172 -15.2345 7
      vertex 10.25 -17.7535 7
    endloop
  endfacet
  facet normal -0.743145 0.669131 0
    outer loop
      vertex 16.5848 -12.0496 23
      vertex 16.5848 -12.0496 7
      vertex 13.7172 -15.2345 23
    endloop
  endfacet
  facet normal -0.743145 0.669131 0
    outer loop
      vertex 13.7172 -15.2345 23
      vertex 16.5848 -12.0496 7
      vertex 13.7172 -15.2345 7
    endloop
  endfacet
  facet normal -0.866025 0.5 0
    outer loop
      vertex 18.7277 -8.3381 23
      vertex 18.7277 -8.3381 7
      vertex 16.5848 -12.0496 23
    endloop
  endfacet
  facet normal -0.866025 0.5 0
    outer loop
      vertex 16.5848 -12.0496 23
      vertex 18.7277 -8.3381 7
      vertex 16.5848 -12.0496 7
    endloop
  endfacet
  facet normal -0.951057 0.309017 0
    outer loop
      vertex 20.052 -4.26219 23
      vertex 20.052 -4.26219 7
      vertex 18.7277 -8.3381 23
    endloop
  endfacet
  facet normal -0.951057 0.309017 0
    outer loop
      vertex 18.7277 -8.3381 23
      vertex 20.052 -4.26219 7
      vertex 18.7277 -8.3381 7
    endloop
  endfacet
  facet normal -0.994522 0.104528 0
    outer loop
      vertex 20.5 0 23
      vertex 20.5 0 7
      vertex 20.052 -4.26219 23
    endloop
  endfacet
  facet normal -0.994522 0.104528 0
    outer loop
      vertex 20.052 -4.26219 23
      vertex 20.5 0 7
      vertex 20.052 -4.26219 7
    endloop
  endfacet
  facet normal -0.994522 -0.104528 0
    outer loop
      vertex 20.5 0 23
      vertex 20.052 4.26219 23
      vertex 20.5 0 7
    endloop
  endfacet
  facet normal -0.994522 -0.104528 0
    outer loop
      vertex 20.5 0 7
      vertex 20.052 4.26219 23
      vertex 20.052 4.26219 7
    endloop
  endfacet
  facet normal -0.951057 -0.309017 0
    outer loop
      vertex 20.052 4.26219 23
      vertex 18.7277 8.3381 23
      vertex 20.052 4.26219 7
    endloop
  endfacet
  facet normal -0.951057 -0.309017 0
    outer loop
      vertex 20.052 4.26219 7
      vertex 18.7277 8.3381 23
      vertex 18.7277 8.3381 7
    endloop
  endfacet
  facet normal -0.866025 -0.5 0
    outer loop
      vertex 18.7277 8.3381 23
      vertex 16.5848 12.0496 23
      vertex 18.7277 8.3381 7
    endloop
  endfacet
  facet normal -0.866025 -0.5 0
    outer loop
      vertex 18.7277 8.3381 7
      vertex 16.5848 12.0496 23
      vertex 16.5848 12.0496 7
    endloop
  endfacet
  facet normal -0.743145 -0.669131 0
    outer loop
      vertex 16.5848 12.0496 23
      vertex 13.7172 15.2345 23
      vertex 16.5848 12.0496 7
    endloop
  endfacet
  facet normal -0.743145 -0.669131 0
    outer loop
      vertex 16.5848 12.0496 7
      vertex 13.7172 15.2345 23
      vertex 13.7172 15.2345 7
    endloop
  endfacet
  facet normal -0.587785 -0.809017 0
    outer loop
      vertex 13.7172 15.2345 7
      vertex 13.7172 15.2345 23
      vertex 10.25 17.7535 23
    endloop
  endfacet
  facet normal -0.587785 -0.809017 0
    outer loop
      vertex 10.25 17.7535 7
      vertex 13.7172 15.2345 7
      vertex 10.25 17.7535 23
    endloop
  endfacet
  facet normal -0.406737 -0.913545 0
    outer loop
      vertex 10.25 17.7535 7
      vertex 10.25 17.7535 23
      vertex 6.33485 19.4967 23
    endloop
  endfacet
  facet normal -0.406737 -0.913545 0
    outer loop
      vertex 6.33485 19.4967 7
      vertex 10.25 17.7535 7
      vertex 6.33485 19.4967 23
    endloop
  endfacet
  facet normal -0.207912 -0.978148 0
    outer loop
      vertex 6.33485 19.4967 7
      vertex 6.33485 19.4967 23
      vertex 2.14283 20.3877 23
    endloop
  endfacet
  facet normal -0.207912 -0.978148 0
    outer loop
      vertex 2.14283 20.3877 7
      vertex 6.33485 19.4967 7
      vertex 2.14283 20.3877 23
    endloop
  endfacet
  facet normal 0 -1 0
    outer loop
      vertex 2.14283 20.3877 7
      vertex 2.14283 20.3877 23
      vertex -2.14283 20.3877 23
    endloop
  endfacet
  facet normal 0 -1 0
    outer loop
      vertex -2.14283 20.3877 7
      vertex 2.14283 20.3877 7
      vertex -2.14283 20.3877 23
    endloop
  endfacet
  facet normal 0.207912 -0.978148 0
    outer loop
      vertex -2.14283 20.3877 7
      vertex -2.14283 20.3877 23
      vertex -6.33485 19.4967 23
    endloop
  endfacet
  facet normal 0.207912 -0.978148 0
    outer loop
      vertex -6.33485 19.4967 7
      vertex -2.14283 20.3877 7
      vertex -6.33485 19.4967 23
    endloop
  endfacet
  facet normal 0.406737 -0.913545 0
    outer loop
      vertex -6.33485 19.4967 7
      vertex -6.33485 19.4967 23
      vertex -10.25 17.7535 23
    endloop
  endfacet
  facet normal 0.406737 -0.913545 0
    outer loop
      vertex -10.25 17.7535 7
      vertex -6.33485 19.4967 7
      vertex -10.25 17.7535 23
    endloop
  endfacet
  facet normal 0.587785 -0.809017 0
    outer loop
      vertex -10.25 17.7535 7
      vertex -10.25 17.7535 23
      vertex -13.7172 15.2345 23
    endloop
  endfacet
  facet normal 0.587785 -0.809017 0
    outer loop
      vertex -13.7172 15.2345 7
      vertex -10.25 17.7535 7
      vertex -13.7172 15.2345 23
    endloop
  endfacet
  facet normal 0.743145 -0.669131 0
    outer loop
      vertex -13.7172 15.2345 7
      vertex -13.7172 15.2345 23
      vertex -16.5848 12.0496 23
    endloop
  endfacet
  facet normal 0.743145 -0.669131 0
    outer loop
      vertex -16.5848 12.0496 7
      vertex -13.7172 15.2345 7
      vertex -16.5848 12.0496 23
    endloop
  endfacet
  facet normal 0.866025 -0.5 0
    outer loop
      vertex -16.5848 12.0496 7
      vertex -16.5848 12.0496 23
      vertex -18.7277 8.3381 23
    endloop
  endfacet
  facet normal 0.866025 -0.5 0
    outer loop
      vertex -18.7277 8.3381 7
      vertex -16.5848 12.0496 7
      vertex -18.7277 8.3381 23
    endloop
  endfacet
  facet normal 0.951057 -0.309017 0
    outer loop
      vertex -18.7277 8.3381 7
      vertex -18.7277 8.3381 23
      vertex -20.052 4.26219 23
    endloop
  endfacet
  facet normal 0.951057 -0.309017 0
    outer loop
      vertex -20.052 4.26219 7
      vertex -18.7277 8.3381 7
      vertex -20.052 4.26219 23
    endloop
  endfacet
  facet normal 0.994522 -0.104528 0
    outer loop
      vertex -20.052 4.26219 7
      vertex -20.052 4.26219 23
      vertex -20.5 0 23
    endloop
  endfacet
  facet normal 0.994522 -0.104528 0
    outer loop
      vertex -20.5 0 7
      vertex -20.052 4.26219 7
      vertex -20.5 0 23
    endloop
  endfacet
  facet normal 0 0 1
    outer loop
      vertex -20.052 -4.26219 7
      vertex -18.7277 -8.3381 7
      vertex -16.5848 -12.0496 7
    endloop
  endfacet
  facet normal 0 0 1
    outer loop
      vertex -10.25 -17.7535 7
      vertex -20.052 -4.26219 7
      vertex -13.7172 -15.2345 7
    endloop
  endfacet
  facet normal 0 0 1
    outer loop
      vertex -13.7172 -15.2345 7
      vertex -20.052 -4.26219 7
      vertex -16.5848 -12.0496 7
    endloop
  endfacet
  facet normal 0 0 1
    outer loop
      vertex -6.33485 -19.4967 7
      vertex -20.052 -4.26219 7
      vertex -10.25 -17.7535 7
    endloop
  endfacet
  facet normal 0 0 1
    outer loop
      vertex -2.14283 -20.3877 7
      vertex -20.052 -4.26219 7
      vertex -6.33485 -19.4967 7
    endloop
  endfacet
  facet normal 0 0 1
    outer loop
      vertex 2.14283 -20.3877 7
      vertex -20.052 -4.26219 7
      vertex -2.14283 -20.3877 7
    endloop
  endfacet
  facet normal 0 0 1
    outer loop
      vertex 6.33485 -19.4967 7
      vertex -20.052 -4.26219 7
      vertex 2.14283 -20.3877 7
    endloop
  endfacet
  facet normal 0 0 1
    outer loop
      vertex 10.25 -17.7535 7
      vertex -20.052 -4.26219 7
      vertex 6.33485 -19.4967 7
    endloop
  endfacet
  facet normal 0 0 1
    outer loop
      vertex 13.7172 -15.2345 7
      vertex -20.052 -4.26219 7
      vertex 10.25 -17.7535 7
    endloop
  endfacet
  facet normal 0 0 1
    outer loop
      vertex 16.5848 -12.0496 7
      vertex -20.052 -4.26219 7
      vertex 13.7172 -15.2345 7
    endloop
  endfacet
  facet normal 0 0 1
    outer loop
      vertex 18.7277 -8.3381 7
      vertex -20.052 -4.26219 7
      vertex 16.5848 -12.0496 7
    endloop
  endfacet
  facet normal 0 0 1
    outer loop
      vertex 20.052 -4.26219 7
      vertex -20.052 -4.26219 7
      vertex 18.7277 -8.3381 7
    endloop
  endfacet
  facet normal 0 0 1
    outer loop
      vertex 20.5 0 7
      vertex -20.052 -4.26219 7
      vertex 20.052 -4.26219 7
    endloop
  endfacet
  facet normal 0 0 1
    outer loop
      vertex 20.052 4.26219 7
      vertex -20.052 -4.26219 7
      vertex 20.5 0 7
    endloop
  endfacet
  facet normal 0 0 1
    outer loop
      vertex 18.7277 8.3381 7
      vertex -20.052 -4.26219 7
      vertex 20.052 4.26219 7
    endloop
  endfacet
  facet normal 0 0 1
    outer loop
      vertex 16.5848 12.0496 7
      vertex -20.052 -4.26219 7
      vertex 18.7277 8.3381 7
    endloop
  endfacet
  facet normal 0 0 1
    outer loop
      vertex 13.7172 15.2345 7
      vertex -20.052 -4.26219 7
      vertex 16.5848 12.0496 7
    endloop
  endfacet
  facet normal 0 0 1
    outer loop
      vertex 10.25 17.7535 7
      vertex -20.052 -4.26219 7
      vertex 13.7172 15.2345 7
    endloop
  endfacet
  facet normal 0 0 1
    outer loop
      vertex 6.33485 19.4967 7
      vertex -20.052 -4.26219 7
      vertex 10.25 17.7535 7
    endloop
  endfacet
  facet normal 0 0 1
    outer loop
      vertex 2.14283 20.3877 7
      vertex -20.052 -4.26219 7
      vertex 6.33485 19.4967 7
    endloop
  endfacet
  facet normal 0 0 1
    outer loop
      vertex -2.14283 20.3877 7
      vertex -20.052 -4.26219 7
      vertex 2.14283 20.3877 7
    endloop
  endfacet
  facet normal 0 0 1
    outer loop
      vertex -6.33485 19.4967 7
      vertex -20.052 -4.26219 7
      vertex -2.14283 20.3877 7
    endloop
  endfacet
  facet normal 0 0 1
    outer loop
      vertex -10.25 17.7535 7
      vertex -20.052 -4.26219 7
      vertex -6.33485 19.4967 7
    endloop
  endfacet
  facet normal 0 0 1
    outer loop
      vertex -13.7172 15.2345 7
      vertex -20.052 -4.26219 7
      vertex -10.25 17.7535 7
    endloop
  endfacet
  facet normal 0 0 1
    outer loop
      vertex -16.5848 12.0496 7
      vertex -20.052 -4.26219 7
      vertex -13.7172 15.2345 7
    endloop
  endfacet
  facet normal 0 0 1
    outer loop
      vertex -18.7277 8.3381 7
      vertex -20.052 -4.26219 7
      vertex -16.5848 12.0496 7
    endloop
  endfacet
  facet normal 0 0 1
    outer loop
      vertex -20.052 4.26219 7
      vertex -20.052 -4.26219 7
      vertex -18.7277 8.3381 7
    endloop
  endfacet
  facet normal 0 0 1
    outer loop
      vertex -20.5 0 7
      vertex -20.052 -4.26219 7
      vertex -20.052 4.26219 7
    endloop
  endfacet
endsolid OpenSCAD_Model
