solid OpenSCAD_Model
  facet normal -0 0 1
    outer loop
      vertex 0 25.5 6.5
      vertex 34.6 0 6.5
      vertex 34.6 25.5 6.5
    endloop
  endfacet
  facet normal 0 0 1
    outer loop
      vertex 34.6 0 6.5
      vertex 0 25.5 6.5
      vertex 0 0 6.5
    endloop
  endfacet
  facet normal 0 0 -1
    outer loop
      vertex 0 0 0
      vertex 34.6 25.5 0
      vertex 34.6 0 0
    endloop
  endfacet
  facet normal -0 0 -1
    outer loop
      vertex 34.6 25.5 0
      vertex 0 0 0
      vertex 0 25.5 0
    endloop
  endfacet
  facet normal 0 -1 0
    outer loop
      vertex 0 0 0
      vertex 34.6 0 6.5
      vertex 0 0 6.5
    endloop
  endfacet
  facet normal 0 -1 -0
    outer loop
      vertex 34.6 0 6.5
      vertex 0 0 0
      vertex 34.6 0 0
    endloop
  endfacet
  facet normal 1 -0 0
    outer loop
      vertex 34.6 0 6.5
      vertex 34.6 25.5 0
      vertex 34.6 25.5 6.5
    endloop
  endfacet
  facet normal 1 0 0
    outer loop
      vertex 34.6 25.5 0
      vertex 34.6 0 6.5
      vertex 34.6 0 0
    endloop
  endfacet
  facet normal 0 1 -0
    outer loop
      vertex 34.6 25.5 0
      vertex 0 25.5 6.5
      vertex 34.6 25.5 6.5
    endloop
  endfacet
  facet normal 0 1 0
    outer loop
      vertex 0 25.5 6.5
      vertex 34.6 25.5 0
      vertex 0 25.5 0
    endloop
  endfacet
  facet normal -1 0 0
    outer loop
      vertex 0 0 0
      vertex 0 25.5 6.5
      vertex 0 25.5 0
    endloop
  endfacet
  facet normal -1 -0 0
    outer loop
      vertex 0 25.5 6.5
      vertex 0 0 0
      vertex 0 0 6.5
    endloop
  endfacet
endsolid OpenSCAD_Model
